{"glyphs":{"0":{"ha":772,"x_min":0,"x_max":0,"o":"m 590 475 b 386 867 590 719 526 867 b 182 475 246 867 182 719 b 386 83 182 231 246 83 b 590 475 526 83 590 231 m 721 475 b 386 -26 721 272 667 -26 b 51 475 106 -26 51 272 b 386 976 51 678 106 976 b 721 475 667 976 721 678 "},"1":{"ha":772,"x_min":0,"x_max":0,"o":"m 499 0 l 368 0 l 368 693 l 140 693 l 140 790 b 403 976 299 801 364 817 l 499 976 "},"2":{"ha":772,"x_min":0,"x_max":0,"o":"m 61 626 b 399 976 61 944 293 976 b 704 685 568 976 704 867 b 443 358 704 510 589 436 l 342 303 b 174 115 208 229 179 153 l 704 115 l 704 0 l 36 0 b 265 388 43 203 135 311 l 394 463 b 574 690 499 522 574 563 b 381 867 574 768 524 867 b 183 626 196 867 188 694 "},"3":{"ha":772,"x_min":0,"x_max":0,"o":"m 311 556 b 375 553 332 554 354 553 b 561 713 469 553 561 590 b 381 867 561 771 526 867 b 190 657 207 867 196 725 l 71 657 b 386 976 71 800 129 976 b 688 719 575 976 688 868 b 563 518 688 594 615 535 l 563 515 b 725 288 657 485 725 418 b 374 -26 725 128 622 -26 b 193 17 301 -26 240 -8 b 47 299 85 74 56 186 l 174 299 b 382 83 178 207 200 83 b 594 272 507 83 594 160 b 367 451 594 436 450 451 b 311 450 349 451 329 450 "},"4":{"ha":772,"x_min":0,"x_max":0,"o":"m 583 238 l 583 0 l 461 0 l 461 238 l 35 238 l 35 357 l 482 976 l 583 976 l 583 343 l 726 343 l 726 238 m 147 343 l 461 343 l 461 786 l 458 786 "},"5":{"ha":772,"x_min":0,"x_max":0,"o":"m 204 568 b 393 629 246 600 306 629 b 714 317 551 629 714 518 b 360 -26 714 208 665 -26 b 44 243 232 -26 68 25 l 171 243 b 378 79 183 129 268 79 b 583 303 504 79 583 181 b 367 519 583 443 488 519 b 186 426 296 519 232 486 l 81 432 l 154 956 l 660 956 l 660 836 l 246 836 "},"6":{"ha":772,"x_min":0,"x_max":0,"o":"m 579 717 b 411 867 564 803 517 867 b 179 506 219 867 179 608 l 182 503 b 414 622 213 556 281 622 b 719 313 533 622 719 546 b 626 68 719 213 693 140 b 379 -26 575 11 517 -26 b 128 115 304 -26 197 7 b 53 454 69 207 53 326 b 414 976 53 668 122 976 b 699 717 526 976 686 915 m 196 300 b 401 83 196 196 258 83 b 593 307 518 83 593 175 b 396 513 593 393 547 513 b 196 300 261 513 196 415 "},"7":{"ha":772,"x_min":0,"x_max":0,"o":"m 51 956 l 726 956 l 726 849 b 325 0 629 747 396 436 l 190 0 b 589 836 224 268 401 618 l 51 836 "},"8":{"ha":772,"x_min":0,"x_max":0,"o":"m 683 725 b 558 519 683 585 601 542 b 718 282 690 464 718 356 b 388 -26 718 125 618 -26 b 153 49 333 -26 231 -12 b 53 281 53 128 53 233 b 218 518 53 400 115 476 b 86 708 135 550 86 617 b 382 976 86 810 149 976 b 683 725 599 976 683 839 m 385 458 b 183 278 247 458 183 368 b 392 83 183 200 222 83 b 588 268 481 83 588 115 b 385 458 588 400 496 458 m 383 564 b 557 721 489 564 557 632 b 375 867 557 781 518 867 b 213 714 244 867 213 776 b 383 564 213 621 294 564 "},"9":{"ha":772,"x_min":0,"x_max":0,"o":"m 365 326 b 58 642 185 326 58 447 b 372 976 58 819 167 976 b 714 524 683 976 714 682 b 360 -26 714 419 696 -26 b 69 235 131 -26 69 140 l 192 235 b 357 75 199 136 257 75 b 592 440 490 75 561 188 l 589 443 b 365 326 553 368 456 326 m 383 436 b 571 658 447 436 571 465 b 374 867 571 769 514 867 b 185 647 260 867 185 778 b 383 436 185 460 301 436 "}," ":{"ha":386,"x_min":0,"x_max":0,"o":""},"!":{"ha":386,"x_min":0,"x_max":0,"o":"m 260 0 l 125 0 l 125 142 l 260 142 m 158 238 l 125 668 l 125 997 l 260 997 l 260 668 l 226 238 "},"\"":{"ha":493,"x_min":0,"x_max":0,"o":"m 97 997 l 199 997 l 199 643 l 97 643 m 294 997 l 396 997 l 396 643 l 294 643 "},"#":{"ha":772,"x_min":0,"x_max":0,"o":"m 499 0 l 407 0 l 447 292 l 274 292 l 233 0 l 142 0 l 182 292 l 39 292 l 51 379 l 194 379 l 221 576 l 78 576 l 90 664 l 233 664 l 274 956 l 367 956 l 326 664 l 499 664 l 539 956 l 632 956 l 592 664 l 735 664 l 722 576 l 579 576 l 551 379 l 694 379 l 682 292 l 539 292 m 314 576 l 286 379 l 460 379 l 486 576 "},"$":{"ha":772,"x_min":0,"x_max":0,"o":"m 351 886 b 186 725 244 886 186 810 b 351 568 186 626 268 582 m 417 75 b 600 250 540 75 600 160 b 492 404 600 328 550 386 l 417 428 m 581 724 b 417 886 571 799 544 863 l 417 554 b 722 272 607 499 722 465 b 417 -26 722 36 531 -26 l 417 -160 l 351 -160 l 351 -26 b 44 296 179 -17 44 56 l 167 296 b 351 75 175 147 213 97 l 351 443 b 64 717 210 476 64 525 b 351 988 64 867 186 988 l 351 1076 l 417 1076 l 417 988 b 699 724 504 981 690 947 "},"%":{"ha":1235,"x_min":0,"x_max":0,"o":"m 54 731 b 292 965 54 863 161 965 b 528 731 421 965 528 861 b 292 493 528 600 422 493 b 54 731 161 493 54 597 m 151 731 b 290 590 151 644 217 590 b 431 731 371 590 431 654 b 292 868 431 808 368 868 b 151 731 213 868 151 806 m 707 228 b 944 463 707 360 814 463 b 1181 228 1074 463 1181 358 b 944 -10 1181 97 1075 -10 b 707 228 814 -10 707 94 m 804 228 b 943 88 804 142 869 88 b 1083 228 1024 88 1083 151 b 944 365 1083 306 1021 365 b 804 228 865 365 804 303 m 379 -26 l 304 -26 l 853 976 l 929 976 "},"&":{"ha":926,"x_min":0,"x_max":0,"o":"m 354 471 b 183 250 247 403 183 357 b 363 85 183 125 307 85 b 579 196 451 85 526 124 m 397 610 b 522 782 450 646 522 697 b 415 892 522 871 456 892 b 299 783 313 892 299 817 b 397 610 299 718 360 647 m 896 0 l 738 0 l 644 114 b 354 -21 576 36 500 -21 b 61 240 106 -21 61 164 b 286 554 61 376 101 450 b 181 775 214 643 181 689 b 417 997 181 890 264 997 b 640 792 574 997 640 892 b 461 531 640 651 535 581 l 643 314 b 683 469 665 375 671 396 l 799 469 b 718 215 793 401 769 310 "},"’":{"ha":308,"x_min":0,"x_max":0,"o":"m 74 997 l 218 997 l 218 861 b 74 643 218 754 186 669 l 74 708 b 147 850 146 719 147 803 l 74 850 "},"(":{"ha":463,"x_min":0,"x_max":0,"o":"m 414 1018 b 225 329 296 796 225 663 b 415 -287 225 100 304 -69 l 333 -287 b 94 363 189 -71 94 103 b 329 1018 94 607 179 804 "},")":{"ha":463,"x_min":0,"x_max":0,"o":"m 49 -287 b 238 401 167 -65 238 68 b 47 1018 238 631 158 800 l 129 1018 b 368 368 274 801 368 628 b 133 -287 368 124 283 -74 "},"*":{"ha":540,"x_min":0,"x_max":0,"o":"m 82 897 l 228 844 l 228 997 l 311 997 l 311 844 l 457 897 l 485 821 l 335 774 l 428 646 l 360 599 l 269 729 l 179 599 l 111 646 l 204 774 l 54 821 "},"+":{"ha":811,"x_min":0,"x_max":0,"o":"m 356 701 l 457 701 l 457 401 l 757 401 l 757 300 l 457 300 l 457 0 l 356 0 l 356 300 l 54 300 l 54 401 l 356 401 "},",":{"ha":386,"x_min":0,"x_max":0,"o":"m 121 147 l 265 147 l 265 11 b 121 -204 265 -178 149 -200 l 121 -140 b 194 0 179 -135 194 -65 l 121 0 "},"-":{"ha":463,"x_min":0,"x_max":0,"o":"m 401 322 l 61 322 l 61 447 l 401 447 "},".":{"ha":386,"x_min":0,"x_max":0,"o":"m 265 0 l 121 0 l 121 147 l 265 147 "},"/":{"ha":386,"x_min":0,"x_max":0,"o":"m 69 -26 l -24 -26 l 318 1024 l 410 1024 "},":":{"ha":386,"x_min":0,"x_max":0,"o":"m 265 0 l 121 0 l 121 147 l 265 147 m 265 569 l 121 569 l 121 717 l 265 717 "},";":{"ha":386,"x_min":0,"x_max":0,"o":"m 121 147 l 265 147 l 265 11 b 121 -204 265 -178 149 -200 l 121 -140 b 194 0 179 -135 194 -65 l 121 0 m 121 569 l 121 717 l 265 717 l 265 569 "},"<":{"ha":811,"x_min":0,"x_max":0,"o":"m 744 15 l 67 303 l 67 400 l 744 688 l 744 576 l 203 351 l 744 126 "},"=":{"ha":811,"x_min":0,"x_max":0,"o":"m 757 440 l 54 440 l 54 542 l 757 542 m 757 160 l 54 160 l 54 261 l 757 261 "},">":{"ha":811,"x_min":0,"x_max":0,"o":"m 67 688 l 744 400 l 744 303 l 67 15 l 67 126 l 608 351 l 67 576 "},"?":{"ha":772,"x_min":0,"x_max":0,"o":"m 78 685 b 188 946 82 779 86 868 b 389 1010 243 989 315 1010 b 683 738 544 1010 683 915 b 553 508 683 646 647 599 b 432 254 465 424 429 392 l 310 254 b 442 553 310 413 344 453 b 553 746 533 647 553 667 b 385 904 553 804 519 904 b 200 685 207 904 200 744 m 442 0 l 307 0 l 307 142 l 442 142 "},"@":{"ha":1410,"x_min":0,"x_max":0,"o":"m 849 567 b 735 694 849 635 796 694 b 525 424 611 694 525 539 b 642 289 525 344 572 289 b 849 567 760 289 849 456 m 919 772 l 1014 772 b 889 319 961 578 889 357 b 918 279 889 293 896 279 b 1115 579 1013 279 1115 431 b 728 938 1115 801 938 938 b 306 493 481 938 306 739 b 738 60 306 247 494 60 b 1075 218 867 60 996 121 l 1168 218 b 735 -26 1078 67 913 -26 b 204 501 438 -26 204 206 b 728 1024 204 792 442 1024 b 1206 590 985 1024 1206 843 b 874 189 1206 339 997 189 b 785 276 826 189 788 217 l 782 275 b 615 189 742 232 681 189 b 411 411 496 189 411 290 b 732 794 411 599 539 794 b 892 686 799 794 856 764 "},"A":{"ha":926,"x_min":0,"x_max":0,"o":"m 263 290 l 158 0 l 19 0 l 394 997 l 547 997 l 908 0 l 761 0 l 663 290 m 614 410 l 467 849 l 464 849 l 304 410 "},"B":{"ha":926,"x_min":0,"x_max":0,"o":"m 238 575 l 481 575 b 689 736 610 575 689 614 b 482 882 689 829 632 882 l 238 882 m 103 997 l 542 997 b 824 746 728 997 824 882 b 690 538 824 681 800 589 b 871 294 756 511 871 465 b 532 0 871 135 753 0 l 103 0 m 238 115 l 525 115 b 736 297 665 115 736 186 b 503 465 736 438 613 465 l 238 465 "},"C":{"ha":1003,"x_min":0,"x_max":0,"o":"m 806 697 b 526 904 768 872 622 904 b 200 508 346 904 200 771 b 531 93 200 274 283 93 b 815 367 618 93 769 135 l 946 367 b 510 -26 890 -10 585 -26 b 61 504 283 -26 61 121 b 526 1024 61 811 236 1024 b 936 697 783 1024 917 864 "},"D":{"ha":1003,"x_min":0,"x_max":0,"o":"m 113 997 l 517 997 b 936 513 776 997 936 800 b 511 0 936 289 839 0 l 113 0 m 247 115 l 508 115 b 797 504 683 115 797 253 b 499 882 797 756 682 882 l 247 882 "},"E":{"ha":926,"x_min":0,"x_max":0,"o":"m 856 0 l 119 0 l 119 997 l 846 997 l 846 878 l 254 878 l 254 572 l 800 572 l 800 453 l 254 453 l 254 119 l 856 119 "},"F":{"ha":849,"x_min":0,"x_max":0,"o":"m 254 0 l 119 0 l 119 997 l 810 997 l 810 878 l 254 878 l 254 572 l 743 572 l 743 453 l 254 453 "},"G":{"ha":1081,"x_min":0,"x_max":0,"o":"m 540 533 l 978 533 l 978 0 l 890 0 l 858 129 b 529 -26 790 35 665 -26 b 224 86 358 -26 275 36 b 67 507 71 231 67 401 b 539 1024 67 750 214 1024 b 961 694 725 1024 932 918 l 831 694 b 532 904 788 868 642 904 b 206 500 353 904 206 761 b 538 89 206 297 272 89 b 742 153 588 89 668 94 b 851 418 829 222 851 311 l 540 418 "},"H":{"ha":1003,"x_min":0,"x_max":0,"o":"m 763 997 l 897 997 l 897 0 l 763 0 l 763 465 l 242 465 l 242 0 l 107 0 l 107 997 l 242 997 l 242 585 l 763 585 "},"I":{"ha":386,"x_min":0,"x_max":0,"o":"m 261 0 l 126 0 l 126 997 l 261 997 "},"J":{"ha":694,"x_min":0,"x_max":0,"o":"m 150 321 l 150 251 b 300 89 150 132 207 89 b 460 261 425 89 460 164 l 460 997 l 594 997 l 594 269 b 307 -26 594 36 442 -26 b 24 222 75 -26 24 129 l 24 321 "},"K":{"ha":926,"x_min":0,"x_max":0,"o":"m 240 0 l 106 0 l 106 997 l 240 997 l 240 514 l 724 997 l 910 997 l 494 594 l 921 0 l 746 0 l 397 500 l 240 350 "},"L":{"ha":772,"x_min":0,"x_max":0,"o":"m 240 119 l 746 119 l 746 0 l 106 0 l 106 997 l 240 997 "},"M":{"ha":1157,"x_min":0,"x_max":0,"o":"m 926 0 l 926 589 b 929 838 926 618 929 744 l 926 838 l 646 0 l 513 0 l 232 836 l 229 836 b 232 589 229 744 232 618 l 232 0 l 101 0 l 101 997 l 294 997 l 579 154 l 582 154 l 865 997 l 1057 997 l 1057 0 "},"N":{"ha":1003,"x_min":0,"x_max":0,"o":"m 767 997 l 897 997 l 897 0 l 746 0 l 239 806 l 236 806 l 236 0 l 106 0 l 106 997 l 265 997 l 764 192 l 767 192 "},"O":{"ha":1081,"x_min":0,"x_max":0,"o":"m 888 499 b 540 904 888 733 757 904 b 193 499 324 904 193 733 b 540 93 193 264 324 93 b 888 499 757 93 888 264 m 1026 499 b 540 -26 1026 283 913 -26 b 54 499 168 -26 54 283 b 540 1024 54 714 168 1024 b 1026 499 913 1024 1026 714 "},"P":{"ha":926,"x_min":0,"x_max":0,"o":"m 254 536 l 522 536 b 725 715 643 536 725 581 b 528 882 725 842 639 882 l 254 882 m 254 0 l 119 0 l 119 997 l 568 997 b 864 717 753 997 864 878 b 568 421 864 578 785 421 l 254 421 "},"Q":{"ha":1081,"x_min":0,"x_max":0,"o":"m 651 289 l 778 190 b 888 499 849 261 888 371 b 540 904 888 733 757 904 b 193 499 324 904 193 733 b 540 93 193 264 324 93 b 688 125 596 93 646 104 l 583 206 m 950 -78 l 797 40 b 540 -26 732 -1 646 -26 b 54 499 168 -26 54 283 b 540 1024 54 714 168 1024 b 1026 499 913 1024 1026 714 b 882 108 1026 372 988 215 l 1018 3 "},"R":{"ha":1003,"x_min":0,"x_max":0,"o":"m 257 0 l 122 0 l 122 997 l 583 997 b 911 729 747 997 911 940 b 772 490 911 582 836 528 b 892 303 829 467 886 442 l 900 122 b 950 22 901 67 908 46 l 950 0 l 785 0 b 761 250 765 61 761 213 b 583 428 761 332 744 428 l 257 428 m 257 543 l 569 543 b 772 715 668 543 772 568 b 593 882 772 869 660 882 l 257 882 "},"S":{"ha":926,"x_min":0,"x_max":0,"o":"m 707 706 b 460 908 700 860 572 908 b 232 733 375 908 232 885 b 350 607 232 649 292 621 l 635 542 b 861 275 764 511 861 433 b 471 -26 861 39 642 -26 b 169 69 286 -26 214 29 b 68 322 85 146 68 229 l 194 322 b 469 89 194 142 342 89 b 731 257 567 89 731 114 b 518 433 731 361 682 394 l 314 481 b 101 715 249 496 101 542 b 444 1024 101 871 203 1024 b 833 706 793 1024 828 815 "},"T":{"ha":849,"x_min":0,"x_max":0,"o":"m 19 997 l 829 997 l 829 878 l 492 878 l 492 0 l 357 0 l 357 878 l 19 878 "},"U":{"ha":1003,"x_min":0,"x_max":0,"o":"m 894 997 l 894 350 b 493 -26 894 146 767 -26 b 110 332 225 -26 110 146 l 110 997 l 244 997 l 244 369 b 497 93 244 153 376 93 b 760 367 621 93 760 150 l 760 997 "},"V":{"ha":926,"x_min":0,"x_max":0,"o":"m 747 997 l 899 997 l 535 0 l 392 0 l 28 997 l 178 997 l 463 147 l 465 147 "},"W":{"ha":1311,"x_min":0,"x_max":0,"o":"m 424 0 l 282 0 l 22 997 l 168 997 l 354 186 l 357 186 l 581 997 l 728 997 l 951 186 l 954 186 l 1140 997 l 1289 997 l 1026 0 l 885 0 l 657 826 l 654 826 "},"X":{"ha":926,"x_min":0,"x_max":0,"o":"m 900 0 l 733 0 l 465 410 l 189 0 l 26 0 l 383 511 l 49 997 l 218 997 l 471 615 l 724 997 l 885 997 l 550 511 "},"Y":{"ha":926,"x_min":0,"x_max":0,"o":"m 531 0 l 396 0 l 396 401 l 19 997 l 176 997 l 463 518 l 749 997 l 907 997 l 531 401 "},"Z":{"ha":849,"x_min":0,"x_max":0,"o":"m 817 0 l 32 0 l 32 113 l 643 878 l 78 878 l 78 997 l 817 997 l 817 881 l 203 119 l 817 119 "},"[":{"ha":386,"x_min":0,"x_max":0,"o":"m 197 -174 l 347 -174 l 347 -272 l 88 -272 l 88 1003 l 347 1003 l 347 904 l 197 904 "},"\\":{"ha":386,"x_min":0,"x_max":0,"o":"m -24 1024 l 68 1024 l 410 -26 l 317 -26 "},"]":{"ha":386,"x_min":0,"x_max":0,"o":"m 189 904 l 39 904 l 39 1003 l 299 1003 l 299 -272 l 39 -272 l 39 -174 l 189 -174 "},"^":{"ha":651,"x_min":0,"x_max":0,"o":"m 564 367 l 326 844 l 89 367 l -19 367 l 276 956 l 376 956 l 671 367 "},"_":{"ha":772,"x_min":0,"x_max":0,"o":"m 0 -174 l 0 -104 l 772 -104 l 772 -174 "},"‘":{"ha":308,"x_min":0,"x_max":0,"o":"m 235 653 l 90 653 l 90 789 b 235 1007 90 896 122 981 l 235 942 b 161 800 163 931 161 847 l 235 800 "},"a":{"ha":772,"x_min":0,"x_max":0,"o":"m 86 506 b 386 747 92 679 207 747 b 656 544 444 747 656 731 l 656 126 b 696 83 656 96 671 83 b 736 89 707 83 722 86 l 736 0 b 669 -14 715 -6 697 -14 b 540 97 561 -14 544 42 b 278 -21 493 46 419 -21 b 50 189 144 -21 50 64 b 271 417 50 250 68 392 l 472 442 b 536 528 501 444 536 456 b 365 646 536 604 481 646 b 199 506 226 646 207 561 m 533 371 b 332 325 514 356 483 344 b 176 207 272 317 176 299 b 308 81 176 128 217 81 b 533 251 422 81 533 154 "},"b":{"ha":772,"x_min":0,"x_max":0,"o":"m 81 0 l 81 997 l 203 997 l 203 635 l 206 635 b 415 747 258 711 331 746 b 718 385 608 747 718 589 b 399 -21 718 211 646 -21 b 199 90 275 -21 224 50 l 196 90 l 196 0 m 592 365 b 393 638 592 458 582 638 b 197 329 217 638 197 447 b 396 85 197 136 318 85 b 592 365 529 85 592 206 "},"c":{"ha":694,"x_min":0,"x_max":0,"o":"m 544 482 b 372 638 529 579 475 638 b 172 364 221 638 172 493 b 371 85 172 239 203 85 b 544 257 453 85 524 146 l 663 257 b 367 -21 650 142 579 -21 b 42 343 163 -21 42 133 b 390 747 42 568 150 747 b 663 482 581 747 653 608 "},"d":{"ha":772,"x_min":0,"x_max":0,"o":"m 693 0 l 578 0 l 578 100 l 575 100 b 368 -21 522 1 439 -21 b 49 385 121 -21 49 211 b 351 747 49 589 158 747 b 568 624 483 747 539 665 l 571 633 l 571 997 l 693 997 m 175 365 b 371 85 175 206 238 85 b 569 329 449 85 569 136 b 374 638 569 447 550 638 b 175 365 185 638 175 458 "},"e":{"ha":772,"x_min":0,"x_max":0,"o":"m 707 228 b 578 29 703 193 669 90 b 381 -21 544 7 497 -21 b 56 343 176 -21 56 133 b 404 747 56 568 164 747 b 717 324 614 747 717 581 l 186 324 b 397 85 186 172 257 85 b 585 228 513 85 581 174 m 590 421 b 388 638 583 533 536 638 b 186 421 275 638 186 533 "},"f":{"ha":386,"x_min":0,"x_max":0,"o":"m 242 625 l 242 0 l 119 0 l 119 625 l 19 625 l 19 726 l 119 726 l 119 851 b 308 1011 119 961 189 1011 b 364 1008 326 1011 344 1010 l 364 899 b 314 901 349 900 329 901 b 242 817 261 901 242 875 l 242 726 l 364 726 l 364 625 "},"g":{"ha":772,"x_min":0,"x_max":0,"o":"m 182 365 b 378 85 182 206 244 85 b 576 329 456 85 576 136 b 381 638 576 447 557 638 b 182 365 192 638 182 458 m 693 60 b 356 -306 693 -44 692 -306 b 78 -89 269 -306 101 -282 l 200 -89 b 364 -204 222 -204 335 -204 b 571 51 575 -204 571 -35 l 571 82 l 568 82 l 568 76 b 375 -21 536 25 472 -21 b 56 385 128 -21 56 211 b 358 747 56 589 165 747 b 575 624 490 747 546 665 l 578 624 l 578 726 l 693 726 "},"h":{"ha":772,"x_min":0,"x_max":0,"o":"m 682 0 l 560 0 l 560 475 b 415 638 560 574 532 638 b 213 396 315 638 213 579 l 213 0 l 90 0 l 90 997 l 213 997 l 213 629 l 215 629 b 428 747 250 675 311 747 b 682 494 540 747 682 701 "},"i":{"ha":308,"x_min":0,"x_max":0,"o":"m 215 0 l 93 0 l 93 726 l 215 726 m 93 858 l 93 997 l 215 997 l 215 858 "},"j":{"ha":308,"x_min":0,"x_max":0,"o":"m 215 -107 b 29 -292 215 -169 210 -292 b -22 -287 13 -292 -4 -290 l -22 -182 l 3 -182 b 93 -93 75 -182 93 -175 l 93 726 l 215 726 m 215 858 l 93 858 l 93 997 l 215 997 "},"k":{"ha":694,"x_min":0,"x_max":0,"o":"m 696 0 l 539 0 l 313 367 l 211 275 l 211 0 l 93 0 l 93 997 l 211 997 l 211 419 l 524 726 l 679 726 l 401 456 "},"l":{"ha":308,"x_min":0,"x_max":0,"o":"m 215 0 l 93 0 l 93 997 l 215 997 "},"m":{"ha":1157,"x_min":0,"x_max":0,"o":"m 90 726 l 206 726 l 206 624 l 208 624 b 428 747 235 663 297 747 b 621 629 558 747 600 668 b 843 747 682 697 731 747 b 1068 503 921 747 1068 707 l 1068 0 l 946 0 l 946 469 b 811 638 946 569 915 638 b 640 443 708 638 640 540 l 640 0 l 518 0 l 518 503 b 404 638 518 564 494 638 b 213 396 335 638 213 593 l 213 0 l 90 0 "},"n":{"ha":772,"x_min":0,"x_max":0,"o":"m 682 0 l 560 0 l 560 447 b 404 638 560 574 524 638 b 213 396 335 638 213 593 l 213 0 l 90 0 l 90 726 l 206 726 l 206 624 l 208 624 b 428 747 235 663 303 747 b 682 494 540 747 682 701 "},"o":{"ha":772,"x_min":0,"x_max":0,"o":"m 49 364 b 386 747 49 551 154 747 b 724 364 618 747 724 551 b 386 -19 724 176 618 -19 b 49 364 154 -19 49 176 m 175 364 b 386 86 175 267 211 86 b 597 364 561 86 597 267 b 386 642 597 461 561 642 b 175 364 211 642 175 461 "},"p":{"ha":772,"x_min":0,"x_max":0,"o":"m 197 329 b 396 85 197 136 318 85 b 592 365 529 85 592 206 b 393 638 592 458 582 638 b 197 329 217 638 197 447 m 81 726 l 196 726 l 196 624 l 199 624 b 415 747 228 665 283 747 b 718 385 608 747 718 589 b 399 -21 718 211 646 -21 b 206 76 301 -21 238 25 l 203 76 l 203 -287 l 81 -287 "},"q":{"ha":772,"x_min":0,"x_max":0,"o":"m 686 -287 l 564 -287 l 564 76 l 561 76 b 368 -21 529 25 465 -21 b 49 385 121 -21 49 211 b 351 747 49 589 158 747 b 568 624 483 747 539 665 l 571 624 l 571 726 l 686 726 m 569 329 b 374 638 569 447 550 638 b 175 365 185 638 175 458 b 371 85 175 206 238 85 b 569 329 449 85 569 136 "},"r":{"ha":463,"x_min":0,"x_max":0,"o":"m 229 0 l 107 0 l 107 726 l 222 726 l 222 606 l 225 606 b 429 747 274 690 338 747 b 461 743 444 747 451 746 l 461 617 l 415 617 b 229 422 301 617 229 528 "},"s":{"ha":694,"x_min":0,"x_max":0,"o":"m 503 519 b 331 642 501 565 485 642 b 186 539 293 642 186 629 b 318 442 186 479 224 465 l 440 411 b 644 219 592 374 644 318 b 357 -21 644 69 521 -21 b 44 233 69 -21 49 146 l 163 233 b 356 85 167 176 183 85 b 522 200 443 85 522 119 b 378 304 522 258 482 278 l 236 339 b 68 515 135 364 68 415 b 343 747 68 675 200 747 b 621 519 603 747 621 556 "},"t":{"ha":386,"x_min":0,"x_max":0,"o":"m 240 625 l 240 153 b 314 96 240 96 289 96 l 357 96 l 357 0 b 265 -10 313 -4 278 -10 b 118 146 144 -10 118 58 l 118 625 l 19 625 l 19 726 l 118 726 l 118 929 l 240 929 l 240 726 l 357 726 l 357 625 "},"u":{"ha":772,"x_min":0,"x_max":0,"o":"m 564 0 l 564 106 l 561 108 b 331 -21 510 24 447 -21 b 94 204 224 -21 94 31 l 94 726 l 217 726 l 217 244 b 357 85 217 125 278 85 b 557 326 511 85 557 221 l 557 726 l 679 726 l 679 0 "},"v":{"ha":694,"x_min":0,"x_max":0,"o":"m 550 726 l 683 726 l 407 0 l 276 0 l 11 726 l 153 726 l 342 135 l 344 135 "},"w":{"ha":1003,"x_min":0,"x_max":0,"o":"m 356 0 l 229 0 l 19 726 l 153 726 l 292 156 l 294 156 l 435 726 l 571 726 l 713 156 l 715 156 l 863 726 l 985 726 l 774 0 l 647 0 l 500 563 l 497 563 "},"x":{"ha":694,"x_min":0,"x_max":0,"o":"m 681 0 l 525 0 l 344 274 l 169 0 l 15 0 l 271 374 l 28 726 l 185 726 l 353 471 l 521 726 l 671 726 l 425 374 "},"y":{"ha":694,"x_min":0,"x_max":0,"o":"m 544 726 l 679 726 b 418 14 594 489 511 251 b 133 -297 303 -281 290 -297 b 82 -286 115 -297 101 -292 l 82 -175 b 156 -187 97 -181 122 -187 b 285 -19 219 -187 226 -169 l 15 726 l 154 726 l 347 135 l 350 135 "},"z":{"ha":694,"x_min":0,"x_max":0,"o":"m 206 101 l 651 101 l 651 0 l 43 0 l 43 96 l 481 625 l 76 625 l 76 726 l 639 726 l 639 626 "},"{":{"ha":464,"x_min":0,"x_max":0,"o":"m 58 408 b 171 585 122 408 171 483 l 171 824 b 313 1003 171 938 242 1003 l 406 1003 l 406 913 l 344 913 b 281 799 296 913 281 861 l 281 563 b 158 368 272 426 186 375 l 158 365 b 281 167 186 357 272 311 l 281 -68 b 344 -182 281 -129 296 -182 l 406 -182 l 406 -272 l 313 -272 b 171 -93 242 -272 171 -207 l 171 144 b 58 325 171 249 122 325 "},"|":{"ha":361,"x_min":0,"x_max":0,"o":"m 131 1024 l 232 1024 l 232 -26 l 131 -26 "},"}":{"ha":464,"x_min":0,"x_max":0,"o":"m 406 325 b 293 144 342 325 293 249 l 293 -93 b 151 -272 293 -207 222 -272 l 58 -272 l 58 -182 l 119 -182 b 183 -68 168 -182 183 -129 l 183 167 b 306 365 192 311 278 357 l 306 368 b 183 563 278 375 192 426 l 183 799 b 119 913 183 861 168 913 l 58 913 l 58 1003 l 151 1003 b 293 824 222 1003 293 938 l 293 585 b 406 408 293 483 342 408 "},"~":{"ha":811,"x_min":0,"x_max":0,"o":"m 726 375 b 553 256 685 308 628 256 b 411 301 501 256 457 276 b 251 350 367 326 315 350 b 135 250 190 350 157 299 l 85 328 b 258 447 115 386 165 447 b 413 403 306 447 360 426 b 554 353 482 371 531 353 b 676 453 610 353 644 404 "},"¡":{"ha":463,"x_min":0,"x_max":0,"o":"m 164 726 l 299 726 l 299 585 l 164 585 m 265 489 l 299 58 l 299 -271 l 164 -271 l 164 58 l 197 489 "},"¢":{"ha":772,"x_min":0,"x_max":0,"o":"m 444 638 b 404 642 433 642 424 642 b 193 340 286 642 193 551 b 294 108 193 240 235 146 m 593 479 b 499 621 582 525 564 596 l 346 85 b 394 79 360 81 369 79 b 594 254 479 79 561 108 l 713 254 b 399 -26 700 153 626 -26 b 315 -17 376 -26 350 -22 l 272 -160 l 215 -160 l 263 -1 b 71 340 156 50 71 161 b 413 747 71 601 197 747 b 472 739 440 747 458 744 l 508 865 l 563 865 l 528 726 b 707 479 578 713 690 649 "},"£":{"ha":772,"x_min":0,"x_max":0,"o":"m 515 528 l 515 440 l 324 440 b 336 349 331 414 336 388 b 168 90 336 269 283 168 l 171 93 l 171 90 b 353 142 222 119 285 142 b 586 93 439 142 528 93 b 692 136 624 93 671 115 l 749 44 b 572 -22 690 0 639 -22 b 282 40 489 -22 385 40 b 119 -15 229 40 171 17 l 51 81 b 221 340 196 176 221 292 b 194 440 221 375 204 418 l 46 440 l 46 528 l 142 528 b 82 714 117 579 82 643 b 425 997 82 829 157 997 b 724 701 635 997 724 846 l 724 681 l 601 681 l 601 693 b 411 892 601 808 525 892 b 213 721 258 892 213 776 b 283 528 213 667 238 611 "},"⁄":{"ha":232,"x_min":0,"x_max":0,"o":"m -151 -26 l -231 -26 l 383 976 l 463 976 "},"¥":{"ha":772,"x_min":0,"x_max":0,"o":"m 58 533 l 272 533 l 4 956 l 143 956 l 386 546 l 629 956 l 768 956 l 500 533 l 715 533 l 715 454 l 447 454 l 447 336 l 715 336 l 715 257 l 447 257 l 447 0 l 325 0 l 325 257 l 58 257 l 58 336 l 325 336 l 325 454 l 58 454 "},"ƒ":{"ha":772,"x_min":0,"x_max":0,"o":"m 675 894 b 596 918 644 907 622 918 b 483 783 522 918 494 836 l 456 640 l 614 640 l 614 543 l 438 543 l 354 89 b 71 -287 303 -193 204 -287 b -15 -271 22 -287 6 -281 l 6 -158 b 76 -178 25 -168 47 -178 b 221 64 168 -178 193 -86 l 310 543 l 158 543 l 158 640 l 329 640 l 368 813 b 588 1024 390 911 467 1024 b 696 1003 644 1024 667 1014 "},"§":{"ha":772,"x_min":0,"x_max":0,"o":"m 521 769 b 383 918 518 814 513 918 b 256 806 329 918 256 889 b 357 681 256 754 294 718 l 560 561 b 711 339 644 511 711 453 b 568 117 711 222 639 161 b 640 -42 611 71 640 28 b 389 -265 640 -185 507 -265 b 115 -4 233 -265 115 -189 l 238 -4 b 372 -160 238 -50 247 -160 b 518 -44 424 -160 518 -144 b 442 65 518 3 490 33 l 150 260 b 60 429 75 310 60 388 b 199 649 60 547 118 601 b 133 788 151 700 133 733 b 383 1024 133 890 201 1024 b 639 769 494 1024 639 975 m 268 594 b 175 460 214 567 175 525 b 238 342 175 386 219 353 l 500 172 b 596 313 553 207 596 242 b 510 446 596 374 557 417 "},"¤":{"ha":772,"x_min":0,"x_max":0,"o":"m 733 771 l 657 696 b 726 488 704 642 726 564 b 657 278 726 411 704 336 l 732 200 l 669 138 l 593 218 b 386 142 538 167 461 142 b 179 218 311 142 235 167 l 103 138 l 40 200 l 115 278 b 46 488 68 336 46 411 b 115 696 46 564 68 642 l 39 771 l 106 838 l 185 760 b 386 831 238 806 313 831 b 588 760 460 831 535 806 l 667 838 m 147 488 b 386 239 147 354 253 239 b 625 488 519 239 625 354 b 386 733 625 618 518 733 b 147 488 254 733 147 618 "},"'":{"ha":265,"x_min":0,"x_max":0,"o":"m 82 997 l 183 997 l 183 643 l 82 643 "},"“":{"ha":463,"x_min":0,"x_max":0,"o":"m 426 653 l 282 653 l 282 789 b 426 1007 282 896 314 981 l 426 942 b 353 800 354 931 353 847 l 426 800 m 197 653 l 53 653 l 53 789 b 197 1007 53 896 85 981 l 197 942 b 124 800 125 931 124 847 l 197 800 "},"«":{"ha":772,"x_min":0,"x_max":0,"o":"m 353 150 l 135 321 l 135 449 l 353 619 l 353 497 l 207 385 l 353 272 m 638 150 l 419 321 l 419 449 l 638 619 l 638 497 l 492 385 l 638 272 "},"‹":{"ha":463,"x_min":0,"x_max":0,"o":"m 340 150 l 122 321 l 122 449 l 340 619 l 340 497 l 194 385 l 340 272 "},"›":{"ha":463,"x_min":0,"x_max":0,"o":"m 122 272 l 268 385 l 122 497 l 122 619 l 340 449 l 340 321 l 122 150 "},"ﬁ":{"ha":694,"x_min":0,"x_max":0,"o":"m 242 625 l 242 0 l 119 0 l 119 625 l 19 625 l 19 726 l 119 726 l 119 851 b 308 1011 119 961 189 1011 b 364 1008 326 1011 344 1010 l 364 899 b 314 901 349 900 329 901 b 242 817 261 901 242 875 l 242 726 l 364 726 l 364 625 m 603 0 l 481 0 l 481 726 l 603 726 m 481 858 l 481 997 l 603 997 l 603 858 "},"ﬂ":{"ha":694,"x_min":0,"x_max":0,"o":"m 242 625 l 242 0 l 119 0 l 119 625 l 19 625 l 19 726 l 119 726 l 119 851 b 308 1011 119 961 189 1011 b 364 1008 326 1011 344 1010 l 364 899 b 314 901 349 900 329 901 b 242 817 261 901 242 875 l 242 726 l 364 726 l 364 625 m 600 0 l 478 0 l 478 997 l 600 997 "},"–":{"ha":772,"x_min":0,"x_max":0,"o":"m 772 333 l 0 333 l 0 435 l 772 435 "},"†":{"ha":772,"x_min":0,"x_max":0,"o":"m 453 -221 l 322 -221 l 322 599 l 60 599 l 60 704 l 322 704 l 322 997 l 453 997 l 453 704 l 714 704 l 714 599 l 453 599 "},"‡":{"ha":772,"x_min":0,"x_max":0,"o":"m 453 165 l 714 165 l 714 60 l 453 60 l 453 -221 l 322 -221 l 322 60 l 60 60 l 60 165 l 322 165 l 322 610 l 60 610 l 60 715 l 322 715 l 322 997 l 453 997 l 453 715 l 714 715 l 714 610 l 453 610 "},"·":{"ha":386,"x_min":0,"x_max":0,"o":"m 194 438 b 281 350 238 438 281 400 b 193 264 281 306 243 264 b 107 350 146 264 107 304 b 194 438 107 401 149 438 "},"¶":{"ha":746,"x_min":0,"x_max":0,"o":"m 322 478 b 25 733 144 478 25 589 b 346 997 25 917 151 997 l 690 997 l 690 -240 l 589 -240 l 589 914 l 424 914 l 424 -240 l 322 -240 "},"•":{"ha":486,"x_min":0,"x_max":0,"o":"m 463 499 b 243 281 463 378 364 281 b 25 499 122 281 25 376 b 243 718 25 619 121 718 b 463 499 364 718 463 619 "},"‚":{"ha":308,"x_min":0,"x_max":0,"o":"m 74 147 l 218 147 l 218 11 b 74 -207 218 -96 186 -181 l 74 -142 b 147 0 146 -131 147 -47 l 74 0 "},"„":{"ha":463,"x_min":0,"x_max":0,"o":"m 36 147 l 181 147 l 181 11 b 36 -207 181 -96 149 -181 l 36 -142 b 110 0 108 -131 110 -47 l 36 0 m 265 147 l 410 147 l 410 11 b 265 -207 410 -96 378 -181 l 265 -142 b 339 0 338 -131 339 -47 l 265 0 "},"”":{"ha":463,"x_min":0,"x_max":0,"o":"m 36 997 l 181 997 l 181 861 b 36 643 181 754 149 669 l 36 708 b 110 850 108 719 110 803 l 36 850 m 265 997 l 410 997 l 410 861 b 265 643 410 754 378 669 l 265 708 b 339 850 338 719 339 803 l 265 850 "},"»":{"ha":772,"x_min":0,"x_max":0,"o":"m 135 150 l 135 272 l 281 385 l 135 497 l 135 619 l 353 449 l 353 321 m 419 150 l 419 272 l 565 385 l 419 497 l 419 619 l 638 449 l 638 321 "},"…":{"ha":1389,"x_min":0,"x_max":0,"o":"m 304 0 l 160 0 l 160 147 l 304 147 m 767 0 l 622 0 l 622 147 l 767 147 m 1229 0 l 1085 0 l 1085 147 l 1229 147 "},"‰":{"ha":1389,"x_min":0,"x_max":0,"o":"m 10 749 b 226 965 10 869 107 965 b 443 749 346 965 443 868 b 226 532 443 629 347 532 b 10 749 107 532 10 626 m 97 749 b 226 619 97 678 153 619 b 356 749 297 619 356 678 b 226 878 356 821 297 878 b 97 749 153 878 97 818 m 443 207 b 660 424 443 328 540 424 b 876 207 779 424 876 326 b 660 -10 876 88 781 -10 b 443 207 540 -10 443 85 m 531 207 b 660 78 531 136 586 78 b 789 207 731 78 789 136 b 660 336 789 279 731 336 b 531 207 586 336 531 276 m 947 207 b 1164 424 947 328 1044 424 b 1381 207 1283 424 1381 326 b 1164 -10 1381 88 1285 -10 b 947 207 1044 -10 947 85 m 1035 207 b 1164 78 1035 136 1090 78 b 1293 207 1235 78 1293 136 b 1164 336 1293 279 1235 336 b 1035 207 1090 336 1035 276 m 204 -26 l 128 -26 l 679 976 l 756 976 "},"¿":{"ha":849,"x_min":0,"x_max":0,"o":"m 732 46 b 622 -215 728 -49 724 -137 b 421 -279 567 -258 494 -279 b 126 -7 265 -279 126 -185 b 257 222 126 85 163 132 b 378 476 344 307 381 339 l 500 476 b 368 178 500 318 465 278 b 257 -15 276 83 257 64 b 425 -174 257 -74 290 -174 b 610 46 603 -174 610 -14 m 368 729 l 503 729 l 503 588 l 368 588 "},"`":{"ha":463,"x_min":0,"x_max":0,"o":"m 19 1019 l 169 1019 l 293 824 l 200 824 "},"´":{"ha":463,"x_min":0,"x_max":0,"o":"m 263 824 l 169 824 l 293 1019 l 443 1019 "},"ˆ":{"ha":463,"x_min":0,"x_max":0,"o":"m 139 824 l 29 824 l 167 1019 l 296 1019 l 433 824 l 322 824 l 231 953 "},"˜":{"ha":463,"x_min":0,"x_max":0,"o":"m 468 1003 b 329 851 458 919 408 851 b 247 869 304 851 285 857 l 211 882 b 126 903 163 899 143 903 b 61 842 89 903 72 878 l -6 842 b 139 990 6 924 46 990 b 233 969 175 990 204 981 l 264 957 b 329 939 290 946 318 939 b 399 1003 385 939 393 976 "},"¯":{"ha":463,"x_min":0,"x_max":0,"o":"m 449 871 l 14 871 l 14 950 l 449 950 "},"˘":{"ha":463,"x_min":0,"x_max":0,"o":"m 446 1015 b 225 826 431 879 344 826 b 18 1015 42 826 24 967 l 86 1015 b 119 949 92 999 99 971 b 236 906 140 925 176 906 b 379 1015 347 906 367 972 "},"˙":{"ha":463,"x_min":0,"x_max":0,"o":"m 294 839 l 168 839 l 168 981 l 294 981 "},"¨":{"ha":463,"x_min":0,"x_max":0,"o":"m 182 839 l 56 839 l 56 981 l 182 981 m 407 839 l 281 839 l 281 981 l 407 981 "},"˚":{"ha":463,"x_min":0,"x_max":0,"o":"m 232 1050 b 360 922 306 1050 360 996 b 232 794 360 849 306 794 b 104 922 158 794 104 849 b 232 1050 104 996 158 1050 m 160 922 b 232 850 160 882 192 850 b 304 922 272 850 304 882 b 232 994 304 963 272 994 b 160 922 192 994 160 963 "},"¸":{"ha":463,"x_min":0,"x_max":0,"o":"m 199 0 l 264 0 l 200 -86 b 243 -81 215 -83 225 -81 b 360 -185 333 -81 360 -140 b 196 -312 360 -257 299 -312 b 63 -282 144 -312 99 -297 l 86 -226 b 176 -247 121 -240 142 -247 b 254 -189 203 -247 254 -240 b 188 -135 254 -146 207 -135 b 133 -146 175 -135 163 -137 l 110 -119 "},"˝":{"ha":463,"x_min":0,"x_max":0,"o":"m 136 824 l 43 824 l 167 1019 l 318 1019 m 386 824 l 293 824 l 417 1019 l 568 1019 "},"˛":{"ha":463,"x_min":0,"x_max":0,"o":"m 399 -282 b 265 -312 379 -290 324 -312 b 101 -185 163 -312 101 -257 b 253 0 101 -140 122 -36 l 346 0 l 346 -6 b 207 -178 232 -68 207 -108 b 285 -247 207 -240 258 -247 b 375 -226 319 -247 340 -240 "},"ˇ":{"ha":463,"x_min":0,"x_max":0,"o":"m 231 890 l 322 1019 l 433 1019 l 296 824 l 167 824 l 29 1019 l 139 1019 "},"—":{"ha":1389,"x_min":0,"x_max":0,"o":"m 1389 333 l 0 333 l 0 435 l 1389 435 "},"Æ":{"ha":1389,"x_min":0,"x_max":0,"o":"m 157 0 l 11 0 l 417 997 l 1311 997 l 1311 878 l 769 878 l 769 572 l 1264 572 l 1264 453 l 769 453 l 769 119 l 1321 119 l 1321 0 l 635 0 l 635 290 l 267 290 m 635 878 l 500 878 l 315 410 l 635 410 "},"ª":{"ha":514,"x_min":0,"x_max":0,"o":"m 481 569 b 436 563 467 567 454 563 b 353 633 367 563 356 594 b 182 563 322 603 274 563 b 33 689 96 563 33 614 b 189 831 33 731 46 814 l 311 844 b 344 897 328 847 344 854 b 239 951 344 926 314 951 b 132 878 143 951 135 900 l 57 878 b 253 1024 61 982 136 1024 b 429 901 290 1024 429 1014 l 429 654 b 454 628 429 635 438 628 b 481 631 461 628 471 629 m 201 635 b 344 738 276 635 349 679 l 344 792 b 217 764 336 783 315 776 b 121 704 178 760 121 749 b 201 635 121 663 142 635 m 460 489 l 460 422 l 49 422 l 49 489 "},"Ł":{"ha":772,"x_min":0,"x_max":0,"o":"m 404 642 l 240 549 l 240 119 l 746 119 l 746 0 l 106 0 l 106 478 l -28 401 l -28 482 l 106 558 l 106 997 l 240 997 l 240 629 l 404 722 "},"Ø":{"ha":1081,"x_min":0,"x_max":0,"o":"m 301 192 b 540 93 360 129 440 93 b 888 499 757 93 888 264 b 819 754 888 599 864 688 m 783 803 b 540 904 725 867 642 904 b 193 499 324 904 193 733 b 264 238 193 397 218 308 m 913 856 b 1026 499 996 749 1026 611 b 540 -26 1026 283 913 -26 b 213 94 394 -26 288 22 l 101 -26 l 57 13 l 172 138 b 54 499 86 244 54 385 b 540 1024 54 714 168 1024 b 872 900 690 1024 799 974 l 985 1024 l 1028 982 "},"Œ":{"ha":1389,"x_min":0,"x_max":0,"o":"m 718 683 b 478 908 718 822 618 908 b 189 471 210 908 189 606 b 224 263 189 390 200 322 b 496 89 271 147 340 89 b 718 319 586 89 718 151 m 726 997 l 1338 997 l 1338 878 l 853 878 l 853 572 l 1315 572 l 1315 453 l 853 453 l 853 119 l 1340 119 l 1340 0 l 725 0 l 725 104 l 722 104 b 457 -26 676 44 624 -26 b 50 493 194 -26 50 194 b 476 1024 50 688 128 1024 b 724 896 642 1024 703 931 l 726 896 "},"º":{"ha":507,"x_min":0,"x_max":0,"o":"m 474 793 b 254 563 474 613 357 563 b 35 793 151 563 35 613 b 254 1024 35 974 151 1024 b 474 793 357 1024 474 974 m 381 793 b 254 951 381 850 364 951 b 128 793 144 951 128 850 b 254 635 128 736 144 635 b 381 793 364 635 381 736 m 460 489 l 460 422 l 49 422 l 49 489 "},"æ":{"ha":1235,"x_min":0,"x_max":0,"o":"m 1050 421 b 847 638 1043 533 996 638 b 646 421 735 638 646 533 m 1167 228 b 1038 29 1163 193 1129 90 b 840 -21 1004 7 957 -21 b 574 131 667 -21 601 81 b 278 -21 503 24 408 -21 b 50 189 144 -21 50 64 b 271 417 50 250 68 392 l 472 442 b 536 528 501 444 536 456 b 365 646 536 604 481 646 b 199 506 226 646 207 561 l 86 506 b 386 747 92 679 207 747 b 622 644 525 747 571 699 b 864 747 663 683 718 747 b 1176 324 1074 747 1176 581 l 646 324 b 857 85 646 172 717 85 b 1044 228 972 85 1040 174 m 533 371 b 332 325 514 356 483 344 b 176 207 272 317 176 299 b 308 81 176 128 217 81 b 533 251 422 81 533 154 "},"ı":{"ha":386,"x_min":0,"x_max":0,"o":"m 254 0 l 132 0 l 132 726 l 254 726 "},"ł":{"ha":308,"x_min":0,"x_max":0,"o":"m 215 535 l 215 0 l 93 0 l 93 471 l -28 401 l -28 482 l 93 551 l 93 997 l 215 997 l 215 615 l 336 685 l 336 604 "},"ø":{"ha":849,"x_min":0,"x_max":0,"o":"m 650 613 b 724 364 700 543 724 453 b 386 -19 724 176 618 -19 b 165 64 292 -19 218 13 l 82 -31 l 39 6 l 128 106 b 49 364 75 176 49 271 b 386 747 49 551 154 747 b 614 657 485 747 560 713 l 703 757 l 746 721 m 538 569 b 386 642 506 611 457 642 b 175 364 211 642 175 461 b 210 199 175 318 183 254 m 242 150 b 386 86 272 113 319 86 b 597 364 561 86 597 267 b 567 518 597 407 590 467 "},"œ":{"ha":1311,"x_min":0,"x_max":0,"o":"m 1126 421 b 924 638 1119 533 1072 638 b 721 421 811 638 721 533 m 1243 228 b 1114 29 1239 193 1206 90 b 917 -21 1081 7 1033 -21 b 647 119 814 -21 715 19 b 386 -19 581 -10 442 -21 b 49 364 154 -19 49 176 b 386 747 49 551 154 747 b 658 600 501 746 599 699 b 940 747 726 704 814 747 b 1253 324 1150 747 1253 581 l 721 324 b 933 85 721 172 793 85 b 1121 228 1049 85 1117 174 m 175 364 b 386 86 175 267 211 86 b 597 364 561 86 597 267 b 386 642 597 461 561 642 b 175 364 211 642 175 461 "},"ß":{"ha":849,"x_min":0,"x_max":0,"o":"m 93 739 b 414 1011 93 899 206 1011 b 746 761 619 1011 746 913 b 632 556 746 626 664 576 b 793 331 735 528 793 413 b 443 -21 793 85 642 -21 b 369 -11 403 -21 389 -15 l 369 93 b 431 89 390 90 411 89 b 667 297 582 89 667 157 b 431 492 667 443 572 492 b 376 486 408 492 393 490 l 376 596 b 408 593 389 594 397 593 b 624 750 575 593 624 668 b 413 906 624 839 553 906 b 215 708 256 906 215 826 l 215 0 l 93 0 "},"¹":{"ha":463,"x_min":0,"x_max":0,"o":"m 60 801 l 60 865 b 231 976 163 872 206 881 l 308 976 l 308 390 l 210 390 l 210 801 "},"¬":{"ha":811,"x_min":0,"x_max":0,"o":"m 656 440 l 54 440 l 54 542 l 757 542 l 757 150 l 656 150 "},"µ":{"ha":772,"x_min":0,"x_max":0,"o":"m 564 0 l 564 106 l 561 108 b 331 -21 510 24 447 -21 b 219 26 303 -21 251 -15 l 217 26 l 217 -287 l 94 -287 l 94 204 l 94 726 l 217 726 l 217 244 b 357 85 217 125 278 85 b 557 326 511 85 557 221 l 557 726 l 679 726 l 679 0 "},"™":{"ha":1389,"x_min":0,"x_max":0,"o":"m 938 576 l 1099 997 l 1254 997 l 1254 425 l 1153 425 l 1153 890 l 1150 890 l 971 425 l 901 425 l 722 890 l 719 890 l 719 425 l 618 425 l 618 997 l 774 997 m 518 914 l 342 914 l 342 425 l 240 425 l 240 914 l 64 914 l 64 997 l 518 997 "},"Ð":{"ha":1003,"x_min":0,"x_max":0,"o":"m 514 453 l 247 453 l 247 115 l 508 115 b 797 504 683 115 797 253 b 499 882 797 756 682 882 l 247 882 l 247 572 l 514 572 m 0 572 l 113 572 l 113 997 l 517 997 b 936 513 776 997 936 800 b 511 0 936 428 915 0 l 113 0 l 113 453 l 0 453 "},"½":{"ha":1158,"x_min":0,"x_max":0,"o":"m 243 -26 l 164 -26 l 778 976 l 857 976 m 60 801 l 60 865 b 231 976 163 872 206 881 l 308 976 l 308 390 l 210 390 l 210 801 m 651 376 b 871 586 651 567 803 586 b 1074 411 985 586 1074 519 b 908 214 1074 306 1000 260 l 846 182 b 735 85 781 147 754 117 l 1074 85 l 1074 0 l 631 0 b 775 232 636 122 694 188 l 858 278 b 976 414 931 317 976 338 b 860 506 981 456 953 506 b 735 376 743 506 738 411 "},"±":{"ha":811,"x_min":0,"x_max":0,"o":"m 356 703 l 457 703 l 457 479 l 757 479 l 757 378 l 457 378 l 457 154 l 356 154 l 356 378 l 54 378 l 54 479 l 356 479 m 54 101 l 757 101 l 757 0 l 54 0 "},"Þ":{"ha":926,"x_min":0,"x_max":0,"o":"m 254 371 l 522 371 b 725 550 643 371 725 415 b 528 717 725 676 639 717 l 254 717 m 119 997 l 254 997 l 254 832 l 568 832 b 864 551 753 832 864 713 b 568 256 864 413 785 256 l 254 256 l 254 0 l 119 0 "},"¼":{"ha":1158,"x_min":0,"x_max":0,"o":"m 582 214 l 868 586 l 957 586 l 957 211 l 1050 211 l 1050 131 l 957 131 l 957 0 l 868 0 l 868 131 l 582 131 m 868 471 l 865 471 l 668 211 l 868 211 m 293 -26 l 214 -26 l 828 976 l 907 976 m 101 806 l 101 865 b 272 976 204 872 247 881 l 346 976 l 346 390 l 251 390 l 251 806 "},"÷":{"ha":811,"x_min":0,"x_max":0,"o":"m 54 300 l 54 401 l 757 401 l 757 300 m 311 633 b 406 728 311 686 356 728 b 500 633 457 728 500 685 b 406 539 500 586 457 539 b 311 633 356 539 311 582 m 311 68 b 406 163 311 121 356 163 b 500 68 457 163 500 119 b 406 -26 500 21 457 -26 b 311 68 356 -26 311 17 "},"¦":{"ha":361,"x_min":0,"x_max":0,"o":"m 131 382 l 232 382 l 232 -26 l 131 -26 m 131 1024 l 232 1024 l 232 639 l 131 639 "},"°":{"ha":556,"x_min":0,"x_max":0,"o":"m 278 917 b 142 774 204 917 142 847 b 278 631 142 700 204 631 b 414 774 351 631 414 700 b 278 917 414 847 351 917 m 481 774 b 278 571 481 658 393 571 b 75 774 163 571 75 658 b 278 976 75 889 163 976 b 481 774 393 976 481 889 "},"þ":{"ha":772,"x_min":0,"x_max":0,"o":"m 197 329 b 396 85 197 136 318 85 b 592 365 529 85 592 206 b 393 638 592 458 582 638 b 197 329 217 638 197 447 m 81 997 l 203 997 l 203 626 l 206 626 b 415 747 231 665 283 747 b 718 385 608 747 718 589 b 399 -21 718 211 646 -21 b 206 76 301 -21 238 25 l 203 76 l 203 -287 l 81 -287 "},"¾":{"ha":1158,"x_min":0,"x_max":0,"o":"m 657 214 l 943 586 l 1032 586 l 1032 211 l 1125 211 l 1125 131 l 1032 131 l 1032 0 l 943 0 l 943 131 l 657 131 m 743 211 l 943 211 l 943 471 l 940 471 m 375 -26 l 296 -26 l 910 976 l 989 976 m 157 569 b 276 456 160 521 172 456 b 410 554 357 456 410 486 b 267 654 410 653 321 654 l 235 654 l 235 725 l 272 725 b 386 818 333 725 386 744 b 275 896 386 847 371 896 b 163 785 182 896 165 833 l 78 785 b 288 976 78 871 121 976 b 483 822 410 976 483 911 b 401 701 483 747 436 711 l 401 699 b 507 564 464 682 507 642 b 275 375 507 468 440 375 b 158 401 228 375 189 386 b 63 569 88 435 68 503 "},"²":{"ha":463,"x_min":0,"x_max":0,"o":"m 26 767 b 246 976 26 957 178 976 b 449 801 360 976 449 910 b 283 604 449 696 375 650 l 221 572 b 110 475 156 538 129 507 l 449 475 l 449 390 l 6 390 b 150 622 11 513 69 578 l 233 668 b 351 804 306 707 351 728 b 235 896 356 846 328 896 b 110 767 118 896 113 801 "},"®":{"ha":1024,"x_min":0,"x_max":0,"o":"m 514 -26 b -19 500 225 -26 -19 196 b 514 1024 -19 801 225 1024 b 1044 500 800 1024 1044 801 b 514 -26 1044 196 800 -26 m 86 500 b 514 61 86 247 274 61 b 939 500 751 61 939 247 b 514 936 939 749 751 936 b 86 500 274 936 86 749 m 403 196 l 311 196 l 311 801 l 542 801 b 756 629 685 801 756 749 b 599 463 756 521 688 474 l 771 196 l 668 196 l 508 458 l 403 458 m 513 536 b 660 635 590 536 660 542 b 528 724 660 710 592 724 l 403 724 l 403 536 "},"−":{"ha":811,"x_min":0,"x_max":0,"o":"m 54 300 l 54 401 l 757 401 l 757 300 "},"ð":{"ha":772,"x_min":0,"x_max":0,"o":"m 175 353 b 386 85 175 276 208 85 b 597 353 564 85 597 276 b 386 621 597 429 564 621 b 175 353 208 621 175 429 m 503 897 b 725 414 644 767 725 592 b 397 -21 725 81 540 -21 b 49 353 154 -21 49 169 b 367 726 49 536 160 726 b 551 650 413 726 486 721 l 554 653 b 400 850 522 732 458 803 l 228 764 l 169 822 l 333 901 b 210 974 296 931 253 956 l 313 1024 b 439 953 358 1006 401 982 l 586 1024 l 651 968 "},"×":{"ha":811,"x_min":0,"x_max":0,"o":"m 54 632 l 126 703 l 406 424 l 686 703 l 757 632 l 478 351 l 757 71 l 686 0 l 406 279 l 125 0 l 54 71 l 335 351 "},"³":{"ha":463,"x_min":0,"x_max":0,"o":"m 101 569 b 221 456 104 521 117 456 b 354 554 301 456 354 486 b 211 654 354 653 265 654 l 179 654 l 179 725 l 217 725 b 331 818 278 725 331 744 b 219 896 331 847 315 896 b 107 785 126 896 110 833 l 22 785 b 232 976 22 871 65 976 b 428 822 354 976 428 911 b 346 701 428 747 381 711 l 346 699 b 451 564 408 682 451 642 b 219 375 451 468 385 375 b 103 401 172 375 133 386 b 7 569 32 435 13 503 "},"©":{"ha":1024,"x_min":0,"x_max":0,"o":"m 514 -26 b -19 500 225 -26 -19 196 b 514 1024 -19 801 225 1024 b 1044 500 800 1024 1044 801 b 514 -26 1044 196 800 -26 m 86 500 b 514 61 86 247 274 61 b 939 500 751 61 939 247 b 514 936 939 749 751 936 b 86 500 274 936 86 749 m 790 401 b 532 178 764 264 660 178 b 222 501 343 178 222 319 b 526 822 222 686 338 822 b 789 604 660 822 769 746 l 696 604 b 528 731 679 681 615 731 b 328 503 397 731 328 632 b 532 269 328 378 406 269 b 696 401 619 269 683 324 "},"Á":{"ha":926,"x_min":0,"x_max":0,"o":""},"Â":{"ha":926,"x_min":0,"x_max":0,"o":""},"Ä":{"ha":926,"x_min":0,"x_max":0,"o":""},"À":{"ha":926,"x_min":0,"x_max":0,"o":""},"Å":{"ha":926,"x_min":0,"x_max":0,"o":""},"Ã":{"ha":926,"x_min":0,"x_max":0,"o":""},"Ç":{"ha":1003,"x_min":0,"x_max":0,"o":""},"É":{"ha":926,"x_min":0,"x_max":0,"o":""},"Ê":{"ha":926,"x_min":0,"x_max":0,"o":""},"Ë":{"ha":926,"x_min":0,"x_max":0,"o":""},"È":{"ha":926,"x_min":0,"x_max":0,"o":""},"Í":{"ha":386,"x_min":0,"x_max":0,"o":""},"Î":{"ha":386,"x_min":0,"x_max":0,"o":""},"Ï":{"ha":386,"x_min":0,"x_max":0,"o":""},"Ì":{"ha":386,"x_min":0,"x_max":0,"o":""},"Ñ":{"ha":1003,"x_min":0,"x_max":0,"o":""},"Ó":{"ha":1081,"x_min":0,"x_max":0,"o":""},"Ô":{"ha":1081,"x_min":0,"x_max":0,"o":""},"Ö":{"ha":1081,"x_min":0,"x_max":0,"o":""},"Ò":{"ha":1081,"x_min":0,"x_max":0,"o":""},"Õ":{"ha":1081,"x_min":0,"x_max":0,"o":""},"Š":{"ha":926,"x_min":0,"x_max":0,"o":""},"Ú":{"ha":1003,"x_min":0,"x_max":0,"o":""},"Û":{"ha":1003,"x_min":0,"x_max":0,"o":""},"Ü":{"ha":1003,"x_min":0,"x_max":0,"o":""},"Ù":{"ha":1003,"x_min":0,"x_max":0,"o":""},"Ý":{"ha":926,"x_min":0,"x_max":0,"o":""},"Ÿ":{"ha":926,"x_min":0,"x_max":0,"o":""},"Ž":{"ha":849,"x_min":0,"x_max":0,"o":""},"á":{"ha":569,"x_min":0,"x_max":0,"o":""},"â":{"ha":569,"x_min":0,"x_max":0,"o":""},"ä":{"ha":569,"x_min":0,"x_max":0,"o":""},"à":{"ha":569,"x_min":0,"x_max":0,"o":""},"å":{"ha":569,"x_min":0,"x_max":0,"o":""},"ã":{"ha":556,"x_min":0,"x_max":0,"o":""},"ç":{"ha":694,"x_min":0,"x_max":0,"o":""},"é":{"ha":569,"x_min":0,"x_max":0,"o":""},"ê":{"ha":569,"x_min":0,"x_max":0,"o":""},"ë":{"ha":569,"x_min":0,"x_max":0,"o":""},"è":{"ha":569,"x_min":0,"x_max":0,"o":""},"í":{"ha":386,"x_min":0,"x_max":0,"o":""},"î":{"ha":386,"x_min":0,"x_max":0,"o":""},"ï":{"ha":386,"x_min":0,"x_max":0,"o":""},"ì":{"ha":386,"x_min":0,"x_max":0,"o":""},"ñ":{"ha":556,"x_min":0,"x_max":0,"o":""},"ó":{"ha":569,"x_min":0,"x_max":0,"o":""},"ô":{"ha":569,"x_min":0,"x_max":0,"o":""},"ö":{"ha":569,"x_min":0,"x_max":0,"o":""},"ò":{"ha":569,"x_min":0,"x_max":0,"o":""},"õ":{"ha":569,"x_min":0,"x_max":0,"o":""},"š":{"ha":694,"x_min":0,"x_max":0,"o":""},"ú":{"ha":569,"x_min":0,"x_max":0,"o":""},"û":{"ha":569,"x_min":0,"x_max":0,"o":""},"ü":{"ha":569,"x_min":0,"x_max":0,"o":""},"ù":{"ha":569,"x_min":0,"x_max":0,"o":""},"ý":{"ha":694,"x_min":0,"x_max":0,"o":""},"ÿ":{"ha":694,"x_min":0,"x_max":0,"o":""},"ž":{"ha":694,"x_min":0,"x_max":0,"o":""},"€":{"ha":772,"x_min":0,"x_max":0,"o":"m 713 789 b 506 861 674 828 604 861 b 261 625 357 861 281 763 l 657 625 l 622 526 l 249 526 b 247 481 247 514 247 496 b 249 429 247 461 247 442 l 588 429 l 554 331 l 261 331 b 506 89 283 176 367 89 b 713 161 604 89 669 122 l 713 33 b 490 -25 681 7 603 -25 b 138 331 299 -25 172 88 l 33 331 l 67 429 l 128 429 b 126 479 126 442 126 461 b 128 526 126 497 126 514 l 33 526 l 67 625 l 136 625 b 490 976 167 829 272 976 b 713 915 594 976 676 944 "}}}
